<?xml version="1.0" standalone="no"?>
<!DOCTYPE svg PUBLIC "-//W3C//DTD SVG 20010904//EN"
 "http://www.w3.org/TR/2001/REC-SVG-20010904/DTD/svg10.dtd">
<svg version="1.0" xmlns="http://www.w3.org/2000/svg"
 width="512.000000pt" height="512.000000pt" viewBox="0 0 512.000000 512.000000"
 preserveAspectRatio="xMidYMid meet">
<metadata>
Created by potrace 1.11, written by Peter Selinger 2001-2013
</metadata>
<g transform="translate(0.000000,512.000000) scale(0.100000,-0.100000)"
fill="#000000" stroke="none">
<path d="M1825 4886 c-144 -41 -262 -165 -294 -308 -15 -64 -6 -176 18 -238
129 -334 598 -356 757 -35 103 208 17 456 -195 557 -53 25 -80 31 -150 34 -55
3 -104 -1 -136 -10z"/>
<path d="M3115 4886 c-156 -52 -265 -168 -294 -316 -28 -145 30 -314 137 -399
171 -134 392 -129 549 13 205 185 169 522 -72 661 -90 52 -231 70 -320 41z"/>
<path d="M676 2582 c-17 -4 -18 -27 -13 -410 2 -224 8 -423 11 -442 4 -19 12
-62 17 -95 99 -591 456 -1046 994 -1265 89 -36 199 -73 259 -86 12 -3 26 -6
31 -8 17 -4 119 -25 145 -30 14 -2 41 -7 60 -10 83 -15 117 -17 345 -21 132
-2 272 1 310 5 144 19 160 21 180 25 20 5 53 11 109 21 98 18 295 86 419 144
206 96 413 256 555 428 195 237 323 551 366 902 19 159 23 840 4 841 -71 5
-743 2 -751 -3 -7 -4 -11 -115 -13 -335 -3 -357 -6 -411 -29 -523 -3 -14 -7
-34 -9 -46 -11 -58 -51 -168 -91 -250 -136 -280 -380 -444 -745 -498 -123 -18
-399 -19 -519 0 -113 17 -227 47 -299 80 -29 13 -55 24 -57 24 -13 0 -117 69
-165 109 -96 81 -154 153 -211 263 -45 89 -90 221 -104 308 -3 19 -10 60 -16
90 -6 31 -13 213 -15 414 -2 198 -6 361 -9 364 -5 5 -732 9 -759 4z"/>
</g>
</svg>
